<svg xmlns="http://www.w3.org/2000/svg" width="22" height="22" viewBox="0 0 22 22">
  <path fill="rgb(50,53,55)" fill-rule="evenodd" d="M9.42858887 1.57141113C9.42858887.7041626 10.13272095 0 11.00003052 0c.86727905 0 1.57141113.7041626 1.57141113 1.57141113v7.85717774h7.8571167C21.29586792 9.42858887 22 10.13275147 22 11c0 .86730957-.70413208 1.57147217-1.57144165 1.57147217h-7.8571167v7.8571167C12.57144165 21.2958374 11.86730957 22 11.00003052 22c-.86730957 0-1.57144165-.7041626-1.57144165-1.57141113v-7.8571167H1.57144165C.70413208 12.57147217 0 11.86730957 0 11c0-.86724854.70413208-1.57141113 1.57144165-1.57141113h7.85714722V1.57141113z"/>
</svg>
